MoBL_ARMS_Upper_Limb_Model_OpenSim_states
version=1
nRows=9
nColumns=55
inDegrees=yes

# SIMM Motion File Header:
name MoBL_ARMS_Upper_Limb_Model_OpenSim_states
datacolumns 55
datarows 9
otherdata 1
range 0.02123648 0.03478064
endheader
time	/jointset/sternoclavicular/sternoclavicular_r2/value	/jointset/sternoclavicular/sternoclavicular_r2/speed	/jointset/sternoclavicular/sternoclavicular_r3/value	/jointset/sternoclavicular/sternoclavicular_r3/speed	/jointset/unrotscap/unrotscap_r3/value	/jointset/unrotscap/unrotscap_r3/speed	/jointset/unrotscap/unrotscap_r2/value	/jointset/unrotscap/unrotscap_r2/speed	/jointset/acromioclavicular/acromioclavicular_r2/value	/jointset/acromioclavicular/acromioclavicular_r2/speed	/jointset/acromioclavicular/acromioclavicular_r3/value	/jointset/acromioclavicular/acromioclavicular_r3/speed	/jointset/acromioclavicular/acromioclavicular_r1/value	/jointset/acromioclavicular/acromioclavicular_r1/speed	/jointset/unrothum/unrothum_r1/value	/jointset/unrothum/unrothum_r1/speed	/jointset/unrothum/unrothum_r3/value	/jointset/unrothum/unrothum_r3/speed	/jointset/unrothum/unrothum_r2/value	/jointset/unrothum/unrothum_r2/speed	/jointset/shoulder0/elv_angle/value	/jointset/shoulder0/elv_angle/speed	/jointset/shoulder1/shoulder_elv/value	/jointset/shoulder1/shoulder_elv/speed	/jointset/shoulder1/shoulder1_r2/value	/jointset/shoulder1/shoulder1_r2/speed	/jointset/shoulder2/shoulder_rot/value	/jointset/shoulder2/shoulder_rot/speed	/jointset/elbow/elbow_flexion/value	/jointset/elbow/elbow_flexion/speed	/jointset/radioulnar/pro_sup/value	/jointset/radioulnar/pro_sup/speed	/jointset/radiocarpal/deviation/value	/jointset/radiocarpal/deviation/speed	/jointset/radiocarpal/flexion/value	/jointset/radiocarpal/flexion/speed	/jointset/wrist_hand/wrist_hand_r1/value	/jointset/wrist_hand/wrist_hand_r1/speed	/jointset/wrist_hand/wrist_hand_r3/value	/jointset/wrist_hand/wrist_hand_r3/speed	/forceset/SUP/activation	/forceset/SUP/fiber_length	/forceset/ECRL/activation	/forceset/ECRL/fiber_length	/forceset/ECRB/activation	/forceset/ECRB/fiber_length	/forceset/ECU/activation	/forceset/ECU/fiber_length	/forceset/FCR/activation	/forceset/FCR/fiber_length	/forceset/FCU/activation	/forceset/FCU/fiber_length	/forceset/PQ/activation	/forceset/PQ/fiber_length
      0.02123648	    -14.09290159	      0.00000000	      5.96908796	     -0.00000000	     -5.96908796	      0.00000000	     14.09290159	     -0.00000000	     -2.85352590	     -0.00000000	     23.06119258	     -0.00000000	     10.36584735	      0.00000000	    -10.36584735	      0.00000000	    -23.06119258	      0.00000000	      2.85352590	      0.00000000	     -0.00000000	     -0.00000000	     58.23500000	     -0.00000000	      0.00000000	      0.00000000	     13.52900000	     -0.00000000	     95.58800000	      0.00000000	     -0.10911286	      4.43732032	      0.04740450	      3.99047407	      0.01880407	      1.72851689	      3.58071350	    292.55034119	      0.53869686	     49.51836130	      0.01000000	      0.03589781	      0.01000000	      0.07909473	      0.01000000	      0.06084910	      0.01000000	      0.06880198	      0.01000000	      0.06108377	      0.01000000	      0.04520839	      0.01000000	      0.02662540
      0.02302600	    -14.09290159	      0.00000000	      5.96908796	     -0.00000000	     -5.96908796	      0.00000000	     14.09290159	     -0.00000000	     -2.85352590	     -0.00000000	     23.06119258	     -0.00000000	     10.36584735	     -0.00000000	    -10.36584735	      0.00000000	    -23.06119258	      0.00000000	      2.85352590	      0.00000000	     -0.00000000	     -0.00000000	     58.23500000	     -0.00000000	      0.00000000	      0.00000000	     13.52900000	     -0.00000000	     95.58800000	      0.00000000	     -0.10069103	      4.96074054	      0.05479925	      4.27451936	      0.02203258	      1.88058535	      4.12027416	    310.40958654	      0.63118697	     53.87480184	      0.01000000	      0.03589875	      0.01000000	      0.07872148	      0.01000000	      0.06096250	      0.01000000	      0.06867395	      0.01000000	      0.06079439	      0.01000000	      0.04497384	      0.01000000	      0.02662440
      0.02603892	    -14.09290159	      0.00000000	      5.96908796	     -0.00000000	     -5.96908796	      0.00000000	     14.09290159	     -0.00000000	     -2.85352590	     -0.00000000	     23.06119258	     -0.00000000	     10.36584735	     -0.00000000	    -10.36584735	      0.00000000	    -23.06119258	      0.00000000	      2.85352590	      0.00000000	     -0.00000000	     -0.00000000	     58.23500000	     -0.00000000	      0.00000000	      0.00000000	     13.52900000	     -0.00000000	     95.58800000	     -0.00000000	     -0.08454920	      5.75248961	      0.06840735	      4.76034780	      0.02809856	      2.14861571	      5.09979066	    339.61385959	      0.80496446	     61.55330596	      0.01000000	      0.03590084	      0.01000000	      0.07809306	      0.01000000	      0.06117023	      0.01000000	      0.06843934	      0.01000000	      0.06030717	      0.01000000	      0.04457894	      0.01000000	      0.02662244
      0.02768810	    -14.09290159	      0.00000000	      5.96908796	     -0.00000000	     -5.96908796	      0.00000000	     14.09290159	     -0.00000000	     -2.85352590	     -0.00000000	     23.06119258	     -0.00000000	     10.36584735	     -0.00000000	    -10.36584735	      0.00000000	    -23.06119258	      0.00000000	      2.85352590	      0.00000000	     -0.00000000	     -0.00000000	     58.23500000	     -0.00000000	      0.00000000	      0.00000000	     13.52900000	     -0.00000000	     95.58800000	     -0.00000000	     -0.07469819	      6.19815745	      0.07648078	      5.03113624	      0.03176795	      2.30219553	      5.67271069	    355.12273811	      0.91008462	     65.95304361	      0.01000000	      0.03590221	      0.01000000	      0.07774908	      0.01000000	      0.06129038	      0.01000000	      0.06830134	      0.01000000	      0.06004048	      0.01000000	      0.04436279	      0.01000000	      0.02662125
      0.02933728	    -14.09290159	      0.00000000	      5.96908796	     -0.00000000	     -5.96908796	      0.00000000	     14.09290159	     -0.00000000	     -2.85352590	     -0.00000000	     23.06119258	     -0.00000000	     10.36584735	     -0.00000000	    -10.36584735	      0.00000000	    -23.06119258	      0.00000000	      2.85352590	      0.00000000	     -0.00000000	     -0.00000000	     58.23500000	     -0.00000000	      0.00000000	      0.00000000	     13.52900000	     -0.00000000	     95.58800000	     -0.00000000	     -0.06408383	      6.68233219	      0.08500398	      5.30581655	      0.03569485	      2.46092469	      6.27091388	    370.26944685	      1.02258217	     70.50029929	      0.01000000	      0.03590372	      0.01000000	      0.07740510	      0.01000000	      0.06141926	      0.01000000	      0.06815680	      0.01000000	      0.05977379	      0.01000000	      0.04414664	      0.01000000	      0.02661995
      0.03098646	    -14.09290159	      0.00000000	      5.96908796	     -0.00000000	     -5.96908796	      0.00000000	     14.09290159	     -0.00000000	     -2.85352590	     -0.00000000	     23.06119258	     -0.00000000	     10.36584735	     -0.00000000	    -10.36584735	      0.00000000	    -23.06119258	      0.00000000	      2.85352590	      0.00000000	     -0.00000000	     -0.00000000	     58.23500000	     -0.00000000	      0.00000000	      0.00000000	     13.52900000	     -0.00000000	     95.58800000	     -0.00000000	     -0.05263617	      7.20559206	      0.09398386	      5.58519089	      0.03988816	      2.62547020	      6.89379834	    385.06156984	      1.14271167	     75.21418072	      0.01000000	      0.03590539	      0.01000000	      0.07706112	      0.01000000	      0.06154853	      0.01000000	      0.06800597	      0.01000000	      0.05950711	      0.01000000	      0.04393048	      0.01000000	      0.02661856
      0.03213520	    -14.09290159	      0.00000000	      5.96908796	     -0.00000000	     -5.96908796	      0.00000000	     14.09290159	     -0.00000000	     -2.85352590	     -0.00000000	     23.06119258	     -0.00000000	     10.36584735	     -0.00000000	    -10.36584735	      0.00000000	    -23.06119258	      0.00000000	      2.85352590	      0.00000000	     -0.00000000	     -0.00000000	     58.23500000	     -0.00000000	      0.00000000	      0.00000000	     13.52900000	     -0.00000000	     95.58800000	     -0.00000000	     -0.04413212	      7.60518534	      0.10051299	      5.78261870	      0.04297169	      2.74353555	      7.34193880	    395.13166367	      1.23104829	     78.59650405	      0.01000000	      0.03590664	      0.01000000	      0.07682152	      0.01000000	      0.06164724	      0.01000000	      0.06789731	      0.01000000	      0.05932134	      0.01000000	      0.04377992	      0.01000000	      0.02661753
      0.03328395	    -14.09290159	      0.00000000	      5.96908796	     -0.00000000	     -5.96908796	      0.00000000	     14.09290159	     -0.00000000	     -2.85352590	     -0.00000000	     23.06119258	     -0.00000000	     10.36584735	      0.00000000	    -10.36584735	      0.00000000	    -23.06119258	      0.00000000	      2.85352590	      0.00000000	     -0.00000000	     -0.00000000	     58.23500000	     -0.00000000	      0.00000000	      0.00000000	     13.52900000	     -0.00000000	     95.58800000	     -0.00000000	     -0.03515610	      8.02647537	      0.10727050	      5.98288363	      0.04619270	      2.86489409	      7.80154414	    405.02391841	      1.32332347	     82.07317020	      0.01000000	      0.03590796	      0.01000000	      0.07658192	      0.01000000	      0.06174341	      0.01000000	      0.06778579	      0.01000000	      0.05913558	      0.01000000	      0.04362936	      0.01000000	      0.02661644
      0.03478064	    -14.09290159	      0.00000000	      5.96908796	     -0.00000000	     -5.96908796	      0.00000000	     14.09290159	     -0.00000000	     -2.85352590	     -0.00000000	     23.06119258	     -0.00000000	     10.36584735	      0.00000000	    -10.36584735	     -0.00000000	    -23.06119258	      0.00000000	      2.85352590	      0.00000000	     -0.00000000	     -0.00000000	     58.23500000	     -0.00000000	      0.00000000	      0.00000000	     13.52900000	     -0.00000000	     95.58800000	     -0.00000000	     -0.02270620	      8.62051786	      0.11642290	      6.24810185	      0.05060191	      3.02796833	      8.41720732	    417.61479996	      1.44963802	     86.74490278	      0.01000000	      0.03590980	      0.01000000	      0.07626975	      0.01000000	      0.06187815	      0.01000000	      0.06763632	      0.01000000	      0.05889355	      0.01000000	      0.04343319	      0.01000000	      0.02661493
